External Loads File
version=1
nRows=54
nColumns=13
Range=5.000000e-03-10 seconds
endheader
time 	forceRightX 	forceRightY 	forceRightZ 	pointRightX 	pointRightY 	pointRightZ 	forceLeftX 	forceLeftY 	forceLeftZ 	pointLeftX 	pointLeftY 	pointLeftZ 		
2.505000 -186.465621 570.633592 -0.000000 0.328716 0.423216 -0.158962 54.891950 -125.923919 -0.000000 0.096522 0.224899 -0.396549
2.510000 -188.226553 568.779449 -0.000000 0.332720 0.416781 -0.158739 59.086597 -112.654499 -0.000000 0.092553 0.231142 -0.396473
2.515000 -188.772474 569.247522 -0.000000 0.336612 0.410180 -0.158575 63.698018 -100.165540 -0.000000 0.088825 0.237629 -0.396314
2.520000 -188.313614 572.005690 -0.000000 0.340143 0.403408 -0.158168 68.559583 -88.793763 -0.000000 0.085327 0.244287 -0.396307
2.525000 -186.590426 576.997280 -0.000000 0.343471 0.396440 -0.157979 73.378640 -78.900139 -0.000000 0.082074 0.251093 -0.396205
2.530000 -183.972080 583.876095 -0.000000 0.346488 0.389372 -0.157862 77.941070 -70.744110 -0.000000 0.079234 0.258094 -0.396251
2.535000 -180.420607 592.433871 -0.000000 0.349296 0.382025 -0.157676 81.942212 -64.614906 -0.000000 0.076795 0.265117 -0.396350
2.540000 -176.115643 602.414560 -0.000000 0.351675 0.374612 -0.157454 85.086619 -60.704883 -0.000000 0.074581 0.272335 -0.396388
2.545000 -170.944683 613.627179 -0.000000 0.354289 0.367041 -0.157381 87.049596 -59.125340 -0.000000 0.072786 0.279596 -0.396543
2.550000 -165.501248 625.660855 -0.000000 0.356320 0.359475 -0.157286 87.629945 -59.733844 -0.000000 0.071367 0.287051 -0.396633
2.555000 -159.272047 638.446701 -0.000000 0.358143 0.351642 -0.157291 86.643117 -62.379696 -0.000000 0.070332 0.294575 -0.396770
2.560000 -153.383349 651.547251 -0.000000 0.359708 0.344073 -0.157265 84.174288 -66.552230 -0.000000 0.069734 0.302235 -0.397007
2.565000 -146.798879 665.067673 -0.000000 0.360971 0.336269 -0.157498 80.151006 -71.935288 -0.000000 0.069426 0.310003 -0.397126
2.570000 -140.504081 678.616449 -0.000000 0.361940 0.328595 -0.157481 74.784772 -77.889446 -0.000000 0.069462 0.317823 -0.397170
2.575000 -133.891419 692.164573 -0.000000 0.362572 0.320778 -0.157424 68.232220 -83.966698 -0.000000 0.069835 0.325656 -0.397211
2.580000 -127.299766 705.485699 -0.000000 0.363014 0.313018 -0.157396 60.843862 -89.669042 -0.000000 0.070503 0.333527 -0.397224
2.585000 -120.522673 718.467273 -0.000000 0.363049 0.305274 -0.157294 52.932640 -94.664302 -0.000000 0.071475 0.341422 -0.397228
2.590000 -112.826536 731.075747 -0.000000 0.362690 0.297405 -0.157378 44.702035 -98.771739 -0.000000 0.072803 0.349425 -0.397264
2.595000 -105.203710 742.998289 -0.000000 0.362166 0.289613 -0.157260 36.542002 -101.808660 -0.000000 0.074418 0.357334 -0.397256
2.600000 -97.731422 754.077379 -0.000000 0.361270 0.281875 -0.156108 28.691776 -103.768460 -0.000000 0.076294 0.364999 -0.397317
2.605000 -88.546371 764.350801 -0.000000 0.359925 0.274165 -0.157107 21.067326 -104.769083 -0.000000 0.078437 0.373073 -0.397385
2.610000 -79.431189 773.347441 -0.000000 0.358269 0.266446 -0.157125 14.037048 -104.844306 -0.000000 0.080922 0.380729 -0.397159
2.615000 -69.645815 780.915327 -0.000000 0.356199 0.258953 -0.157051 7.615357 -104.172421 -0.000000 0.083723 0.388413 -0.397071
2.620000 -59.488632 786.817985 -0.000000 0.353819 0.251579 -0.156989 1.955158 -102.938592 -0.000000 0.086747 0.395970 -0.397182
2.625000 -48.853241 790.891732 -0.000000 0.351089 0.244315 -0.156862 -2.885589 -101.334821 -0.000000 0.090058 0.403397 -0.397154
2.630000 -37.959895 792.962613 -0.000000 0.348055 0.237178 -0.156815 -6.881732 -99.529185 -0.000000 0.093678 0.410619 -0.397194
2.635000 -26.349618 792.896744 -0.000000 0.344618 0.230096 -0.156682 -10.184459 -97.655462 -0.000000 0.097625 0.417697 -0.397267
2.640000 -14.782657 790.538293 -0.000000 0.340813 0.223282 -0.156986 -12.864664 -95.843219 -0.000000 0.101770 0.424623 -0.397208
2.645000 -3.158004 785.855931 -0.000000 0.336716 0.216601 -0.156898 -15.121468 -94.224307 -0.000000 0.106188 0.431367 -0.397276
2.650000 8.079218 778.923575 -0.000000 0.332311 0.210217 -0.156766 -17.093825 -92.932950 -0.000000 0.110850 0.437977 -0.396939
2.655000 18.685908 769.910578 -0.000000 0.327657 0.204027 -0.156627 -18.991230 -92.019489 -0.000000 0.115638 0.444502 -0.396738
2.660000 28.074603 759.028418 -0.000000 0.322727 0.198133 -0.156549 -21.027526 -91.408346 -0.000000 0.120638 0.450598 -0.396808
2.665000 36.963653 746.439325 -0.000000 0.317494 0.192433 -0.156379 -23.558821 -90.855380 -0.000000 0.126007 0.456408 -0.397035
2.670000 44.558439 732.350537 -0.000000 0.312012 0.187124 -0.156247 -26.683203 -90.057795 -0.000000 0.131450 0.462022 -0.396739
2.675000 50.953323 716.912585 -0.000000 0.306369 0.182123 -0.156098 -30.492658 -88.649164 -0.000000 0.137070 0.467289 -0.396792
2.680000 57.092155 700.127655 -0.000000 0.300457 0.177385 -0.156043 -35.064481 -86.242268 -0.000000 0.143131 0.472238 -0.396756
2.685000 62.748632 681.958819 -0.000000 0.294495 0.173040 -0.155948 -40.225194 -82.563767 -0.000000 0.149656 0.476816 -0.397063
2.690000 67.457499 662.296584 -0.000000 0.288209 0.168905 -0.155847 -45.699271 -77.490653 -0.000000 0.155801 0.481121 -0.397074
2.695000 72.528595 640.790306 -0.000000 0.281725 0.165307 -0.155815 -51.391679 -70.915001 -0.000000 0.162404 0.485038 -0.397228
2.700000 77.273120 617.309847 -0.000000 0.275000 0.162025 -0.155793 -56.977123 -62.940693 -0.000000 0.168798 0.488541 -0.397195
2.705000 82.505331 591.657483 -0.000000 0.268183 0.159271 -0.155491 -62.314091 -53.595152 -0.000000 0.175503 0.491749 -0.397379
2.710000 88.591712 563.757449 -0.000000 0.261021 0.156719 -0.155488 -67.206378 -42.951860 -0.000000 0.182403 0.494572 -0.397606
2.715000 94.779120 533.726382 -0.000000 0.253649 0.154762 -0.155574 -71.358394 -31.232297 -0.000000 0.189246 0.496997 -0.397801
2.720000 100.828100 501.587984 -0.000000 0.246195 0.153096 -0.155669 -74.539927 -18.625109 -0.000000 0.195938 0.499090 -0.397887
2.725000 107.015643 467.173501 -0.000000 0.238513 0.151779 -0.155850 -76.590083 -5.204244 -0.000000 0.202679 0.500326 -0.398048
2.730000 112.807956 430.392818 -0.000000 0.230690 0.150943 -0.156045 -77.410371 8.930566 -0.000000 0.209247 0.501509 -0.398230
2.735000 117.678561 391.193195 -0.000000 0.223005 0.150552 -0.156425 -77.051471 23.804810 -0.000000 0.215749 0.502312 -0.398424
2.740000 121.398012 349.578234 -0.000000 0.215256 0.150617 -0.156650 -75.677557 39.690384 -0.000000 0.222063 0.502635 -0.398603
2.745000 123.561381 305.817653 -0.000000 0.207536 0.151105 -0.156887 -73.535195 57.033276 -0.000000 0.228268 0.502474 -0.398805
2.750000 123.607975 260.545592 -0.000000 0.199950 0.152122 -0.157194 -70.978204 76.356405 -0.000000 0.234194 0.501866 -0.399069
2.755000 121.327875 214.614282 -0.000000 0.192609 0.153470 -0.157398 -68.409847 98.233015 -0.000000 0.239825 0.500597 -0.399294
2.760000 116.862055 169.027749 -0.000000 0.185552 0.154948 -0.157521 -66.230153 123.154730 -0.000000 0.245355 0.498913 -0.399649
2.765000 110.456469 124.978344 -0.000000 0.178896 0.156950 -0.157598 -64.967331 151.322709 -0.000000 0.250653 0.496696 -0.400075
2.770000 102.714505 83.507990 -0.000000 0.172356 0.159290 -0.157787 -65.060686 182.699585 -0.000000 0.255661 0.493977 -0.400413
